<?xml version="1.0" encoding="iso-8859-1"?>
<!-- Generator: Adobe Illustrator 16.0.0, SVG Export Plug-In . SVG Version: 6.00 Build 0)  -->
<!DOCTYPE svg PUBLIC "-//W3C//DTD SVG 1.1//EN" "http://www.w3.org/Graphics/SVG/1.1/DTD/svg11.dtd">
<svg version="1.1" id="Layer_1" xmlns="http://www.w3.org/2000/svg" xmlns:xlink="http://www.w3.org/1999/xlink" x="0px" y="0px"
	 width="841.89px" height="595.28px" viewBox="0 0 841.89 595.28" style="enable-background:new 0 0 841.89 595.28;"
	 xml:space="preserve">
<g>
	<path style="fill:#333;" d="M62.871,395.023c0-5.353,0.286-11.379,0.86-18.077c0.574-6.693,1.385-13.674,2.438-20.947
		c1.051-7.266,2.296-14.582,3.73-21.949c1.436-7.361,3.107-14.297,5.022-20.802c0.956-3.059,2.053-6.932,3.3-11.621
		c1.242-4.686,2.724-9.657,4.446-14.921c1.722-5.26,3.631-10.568,5.738-15.925c2.104-5.354,4.449-10.088,7.031-14.203
		c2.582-4.112,5.402-7.361,8.464-9.757c3.057-2.39,6.313-3.298,9.755-2.724c1.911,0.385,3.394,1.004,4.448,1.864
		c1.049,0.86,2.534,2.633,4.446,5.308c3.252,4.783,5.497,9.998,6.745,15.637c1.242,5.645,2.102,11.434,2.582,17.359
		c0.475,5.933,0.905,11.864,1.291,17.791c0.381,5.932,1.243,11.67,2.582,17.216c1.529,5.356,2.44,9.138,2.726,11.335
		c0.288,2.201,0.619,3.299,1.004,3.299c0.381,0,0.956-0.574,1.722-1.721c2.296-3.252,4.779-8.224,7.46-14.922
		c2.676-6.693,5.595-14.202,8.751-22.523c3.156-8.323,6.552-16.929,10.187-25.824c3.631-8.896,7.505-17.024,11.621-24.39
		c4.112-7.361,8.51-13.487,13.199-18.363c4.686-4.878,9.613-7.505,14.777-7.891c5.546-0.381,9.514,1.341,11.907,5.164
		c2.389,3.828,3.775,8.706,4.162,14.633c0.379,5.931,0.093,12.294-0.862,19.081c-0.959,6.792-2.008,12.962-3.156,18.507
		c-1.915,8.994-4.305,17.79-7.173,26.397c-2.87,8.607-5.981,17.602-9.327,26.973c-3.349,9.373-6.698,19.416-10.042,30.128
		c-3.349,10.714-6.455,22.668-9.325,35.866c-0.767,4.017-1.434,7.124-2.008,9.325c-0.574,2.196-1.148,3.872-1.722,5.021
		c-0.574,1.147-1.245,1.959-2.008,2.439c-0.767,0.476-1.915,1.098-3.442,1.864c-3.444,1.53-6.313,2.297-8.609,2.297
		c-2.107,0-3.779-0.529-5.022-1.578c-1.246-1.055-1.864-2.538-1.864-4.448c0-3.442,0.86-10.186,2.582-20.228
		c1.722-10.043,4.161-22.476,7.316-37.303c3.156-14.822,7.031-31.514,11.621-50.069c4.59-18.553,9.85-38.064,15.781-58.535
		c1.336-4.205,2.152-7.028,2.44-8.464c0.286-1.435,0.619-2.913,1.004-4.446c-5.738,7.846-11.047,17.071-15.925,27.688
		c-4.878,10.617-9.52,21.09-13.917,31.42c-4.402,10.329-8.607,19.846-12.625,28.548c-4.016,8.707-8.035,15.064-12.051,19.081
		c-1.148,1.148-2.631,2.059-4.448,2.727c-1.819,0.673-3.491,1.004-5.021,1.004c-2.107,0-3.972-0.761-5.594-2.294
		c-1.629-1.53-2.97-3.346-4.019-5.453c-1.053-2.104-1.915-4.304-2.582-6.6c-0.671-2.295-1.104-4.303-1.29-6.025
		c-0.195-2.104-0.481-4.063-0.862-5.882c-0.385-1.815-0.767-3.73-1.148-5.738c-0.385-2.009-0.815-4.205-1.29-6.601
		c-0.48-2.39-0.911-5.309-1.292-8.751c-0.385-2.483-0.671-4.59-0.86-6.312c-0.192-1.722-0.385-2.583-0.574-2.583
		c0,0.193-1.148,3.256-3.442,9.181c-2.296,5.934-4.785,13.199-7.46,21.808c-4.211,14.732-7.56,27.258-10.043,37.589
		c-2.489,10.328-4.448,18.986-5.882,25.968c-1.434,6.983-2.582,12.529-3.444,16.642c-0.86,4.115-1.72,7.36-2.582,9.756
		c-0.86,2.39-1.915,4.16-3.156,5.309c-1.246,1.146-3.111,2.294-5.594,3.442c-1.915,0.763-3.256,1.148-4.019,1.148
		c-1.913,0-3.349-0.719-4.302-2.152c-0.959-1.435-1.629-3.205-2.01-5.309c-0.385-2.107-0.623-4.403-0.716-6.887
		C63.202,399.14,63.058,396.937,62.871,395.023z"/>
	<path style="fill:#333;" d="M289.257,317.264c-2.682,13.011-5.12,22.193-7.316,27.547c-2.201,5.356-3.111,8.032-2.726,8.032
		l3.73-3.729c1.722-1.529,3.73-3.825,6.026-6.886c2.294-3.06,4.59-6.313,6.887-9.757c2.294-3.442,4.446-6.694,6.456-9.755
		c2.008-3.059,3.394-5.453,4.161-7.175c2.294,0,4.016,0.288,5.165,0.862c1.148,0.572,1.959,1.29,2.438,2.15
		c0.475,0.861,0.669,1.678,0.574,2.439c-0.099,0.768-0.336,1.435-0.716,2.009c-1.341,2.681-3.255,5.882-5.74,9.612
		c-2.487,3.73-4.976,7.51-7.458,11.333c-3.063,4.978-6.17,8.708-9.327,11.19c-3.156,2.489-5.98,4.305-8.465,5.453
		c-2.487,1.147-4.497,1.819-6.024,2.008c-1.533,0.192-2.203,0.48-2.01,0.86c-2.294,4.403-4.446,8.034-6.455,10.904
		c-2.008,2.868-4.259,5.787-6.742,8.751c-2.489,2.967-5.071,5.215-7.749,6.742c-4.59,3.063-10.14,4.593-16.641,4.593
		c-2.682,0-5.453-0.382-8.321-1.148c-2.87-0.763-5.645-1.911-8.322-3.444c-5.55-3.442-9.424-8.465-11.621-15.063
		c-2.201-6.601-3.205-13.725-3.012-21.378c0.189-7.647,1.386-15.444,3.586-23.384c2.197-7.936,4.878-15.064,8.035-21.377
		s6.693-11.333,10.617-15.063c3.919-3.73,7.698-5.209,11.333-4.448c0.956,0.192,1.578-0.142,1.866-1.004
		c0.286-0.86,0.667-2.102,1.148-3.73c0.475-1.623,1.335-3.68,2.583-6.168c1.241-2.483,3.105-5.26,5.594-8.321
		c2.296-2.678,4.59-4.592,6.886-5.738c2.296-1.148,5.067-1.722,8.321-1.722c5.927,0,10.712,1.722,14.347,5.165
		c3.631,3.444,6.313,7.797,8.035,13.055c1.722,5.264,2.582,11.146,2.582,17.647C290.979,304.832,290.405,311.145,289.257,317.264z
		 M260.565,366.904c0.761-1.148,1.334-2.197,1.72-3.156c0.188-0.382,0.381-0.764,0.574-1.148c0-0.382-0.286-0.718-0.86-1.004
		c-0.574-0.288-1.434-0.763-2.583-1.435c-1.148-0.669-2.393-1.722-3.73-3.156c-1.341-1.436-2.682-3.396-4.017-5.882
		c-2.489-4.398-4.018-7.175-4.592-8.321c-0.574-1.147-0.959-1.722-1.148-1.722c-0.385,2.682-0.623,4.976-0.716,6.887
		c-0.1,1.914-0.243,4.016-0.43,6.313c-0.193,2.294-0.288,4.304-0.288,6.024c-0.192,7.846,0.288,13.584,1.434,17.217
		c1.148,3.635,1.817,5.45,2.01,5.45c0.187,0,1.671-1.434,4.446-4.302C255.157,375.799,257.883,371.88,260.565,366.904z
		 M267.451,350.261c0.379-0.38,1.29-3.298,2.725-8.751c1.436-5.452,2.87-12.002,4.304-19.655c1.436-7.647,2.44-15.637,3.014-23.958
		c0.574-8.323,0.093-15.54-1.436-21.664c-0.385-1.529-1.148-3.156-2.294-4.878c-1.148-1.722-2.01-2.582-2.582-2.582
		c-0.574,0-1.436,0.479-2.584,1.434c-1.146,0.959-2.294,2.251-3.442,3.874c-1.148,1.627-2.296,3.397-3.442,5.309
		c-1.148,1.915-2.107,3.828-2.87,5.738c-0.574,1.341-1.104,3.205-1.578,5.595c-0.48,2.395-0.86,4.927-1.148,7.604
		c-0.286,2.681-0.529,5.405-0.718,8.177c-0.192,2.776-0.192,5.215,0,7.316c0.381,6.125,1.193,11.479,2.44,16.068
		c1.241,4.591,2.627,8.42,4.16,11.478C263.721,344.811,265.537,347.777,267.451,350.261z"/>
	<path style="fill:#333;" d="M333.44,409.369c0.381-4.401,1.578-10.662,3.586-18.794c2.01-8.128,4.736-17.403,8.179-27.832
		c3.442-10.424,7.554-21.565,12.339-33.428c4.779-11.858,10.136-23.765,16.067-35.723c5.927-11.954,12.384-23.672,19.368-35.15
		c6.981-11.477,14.392-21.901,22.237-31.274c6.12-7.842,11.858-11.765,17.218-11.765c1.527,0,2.963,0.288,4.302,0.86
		c0.763,0.387,1.243,0.673,1.437,0.862c0.187,0.193,0.285,0.671,0.285,1.435c0,0.767-0.099,1.819-0.285,3.156
		c-0.193,1.34-0.193,3.349,0,6.026c0.187,3.635,0.045,7.746-0.43,12.337c-0.481,4.592-1.148,9.468-2.011,14.635
		c-0.86,5.165-1.771,10.615-2.724,16.355c-0.962,5.739-1.822,11.477-2.585,17.215c-1.339,10.714-2.394,18.893-3.156,24.532
		c-0.767,5.645-1.29,9.756-1.578,12.338c-0.286,2.583-0.335,4.116-0.142,4.591c0.187,0.481,0.574,0.911,1.146,1.292
		c1.147,0.386,2.151,1.053,3.014,2.008c0.859,0.96,1.29,2.009,1.29,3.156c0.188,1.148,0.095,1.864-0.286,2.152
		c-0.385,0.286-1.434,0.623-3.156,1.004c-1.914,0.193-3.063,0.481-3.444,0.86c-0.386,0.388-1.146,7.749-2.294,22.096
		c-0.959,10.903-1.436,19.704-1.436,26.396c0,6.7-0.049,11.958-0.143,15.783c-0.1,3.824-0.385,6.55-0.862,8.177
		c-0.479,1.623-1.675,2.819-3.586,3.587c-1.341,0.573-2.2,0.811-2.582,0.718c-0.386-0.1-0.767-0.815-1.148-2.152
		c-0.386-0.767-0.622-3.156-0.716-7.173c-0.1-4.018-0.051-8.797,0.143-14.347c0.188-5.546,0.477-11.429,0.861-17.647
		c0.381-6.213,0.717-11.951,1.004-17.215c0.286-5.26,0.619-11.429,1.004-18.508c-6.697,0.193-12.05,0.386-16.069,0.574
		c-4.016,0.192-7.747,0.386-11.189,0.574c-3.444,0.192-5.166,0.385-5.166,0.574c-1.72,4.783-3.253,8.943-4.59,12.48
		c-1.341,3.542-2.726,7.461-4.161,11.765c-1.434,4.305-2.825,8.465-4.16,12.481c-2.87,8.42-5.12,14.921-6.742,19.512
		c-1.629,4.59-2.97,7.935-4.019,10.042c-1.053,2.104-1.915,3.444-2.582,4.017c-0.671,0.574-1.485,1.051-2.438,1.436
		c-2.681,1.148-5.308,2.532-7.89,4.161c-2.583,1.622-5.694,1.959-9.327,1.004c-1.534-0.386-2.438-1.055-2.725-2.009
		C333.01,415.584,333.055,413.194,333.44,409.369z M387.67,327.594c-0.192,0.385,0.239,0.624,1.292,0.717
		c1.049,0.1,4.061,0.242,9.039,0.431c4.779,0,8.414,0.051,10.903,0.144c2.485,0.1,4.256,0.145,5.309,0.145
		c1.049,0,1.623-0.096,1.722-0.288c0.094-0.188,0.145-0.475,0.145-0.86c0-0.381,0.094-1.623,0.286-3.73
		c0.188-2.104,0.475-4.734,0.86-7.891c0.381-3.156,0.811-6.549,1.291-10.186c0.476-3.632,0.905-7.173,1.293-10.617
		c0.761-5.354,1.671-11.284,2.724-17.79c1.051-6.501,2.104-12.576,3.156-18.219c1.051-5.641,1.866-10.282,2.44-13.917
		c0.574-3.631,0.761-5.353,0.574-5.165c-0.193,0.193-1.104,1.915-2.727,5.165c-1.629,3.255-3.637,7.365-6.026,12.339
		c-2.394,4.976-5.071,10.57-8.034,16.785c-2.968,6.217-5.931,12.53-8.895,18.938c-2.967,6.411-5.787,12.58-8.464,18.507
		C391.877,318.031,389.581,323.195,387.67,327.594z"/>
	<path style="fill:#333;" d="M463.994,258.156c2.482-2.104,4.877-3.156,7.172-3.156c1.91,0,3.73,0.385,5.452,1.148
		c2.676,0.767,4.491,2.201,5.45,4.304c0.956,2.107,1.293,5.069,1.006,8.895c-0.287,3.828-1.103,8.657-2.439,14.489
		c-1.341,5.838-2.868,12.961-4.59,21.377c-2.297,10.329-3.973,18.078-5.023,23.242c-1.053,5.164-1.72,8.799-2.008,10.902
		c-0.286,2.107-0.336,3.063-0.143,2.871c0.762-2.485,2.583-6.646,5.451-12.483c2.87-5.831,6.215-12.337,10.043-19.511
		c3.823-7.173,7.936-14.727,12.338-22.668c4.398-7.936,8.559-15.301,12.481-22.094c3.919-6.787,7.361-12.576,10.329-17.359
		c2.963-4.779,4.923-7.649,5.883-8.608c2.295-2.483,4.878-3.73,7.748-3.73c2.868,0,5.594,0.767,8.176,2.296
		c2.583,1.533,4.35,2.967,5.309,4.304c2.104,2.868,3.346,6.599,3.73,11.191c0.382,4.59,0.145,9.661-0.718,15.207
		c-0.86,5.55-2.152,11.383-3.872,17.503c-1.723,6.124-3.542,12.15-5.453,18.075c-1.914,5.934-3.73,11.576-5.452,16.93
		c-1.72,5.358-3.061,9.949-4.017,13.772c-0.766,2.87-1.389,4.641-1.863,5.309c-0.48,0.673-1.293,1.196-2.44,1.578
		c-1.341,0.385-3.493,0.336-6.456-0.145c-2.968-0.475-5.12-1.098-6.455-1.864c-1.341-0.574-2.969-2.296-4.878-5.164
		c-1.915-2.87-2.87-6.408-2.87-10.617c0-1.147,0.381-3.586,1.148-7.316c0.762-3.73,1.622-7.842,2.582-12.338
		c0.955-4.492,2.008-8.796,3.156-12.912c1.147-4.112,2.008-7.03,2.582-8.752c0.574-1.148,1.291-2.964,2.152-5.451
		c0.861-2.485,1.722-5.022,2.582-7.604c0.861-2.582,1.623-4.923,2.296-7.03c0.667-2.102,1.004-3.25,1.004-3.442
		c-4.976,7.079-10.142,15.114-15.493,24.102c-4.403,7.846-9.375,17.073-14.921,27.69c-5.552,10.617-11.002,22.523-16.355,35.723
		c-2.489,6.313-4.448,11.146-5.882,14.489c-1.435,3.351-2.582,5.981-3.444,7.891c-0.86,1.915-1.435,3.444-1.721,4.592
		c-0.288,1.148-0.622,2.583-1.004,4.305c-0.573,3.827-1.437,6.554-2.582,8.177c-1.147,1.627-3.351,3.3-6.601,5.022
		c-2.296,1.339-4.689,2.294-7.172,2.868c-2.489,0.574-4.785,0.861-6.887,0.861c-2.107,0-3.924-0.287-5.453-0.861
		c-2.488-1.335-3.874-5.209-4.16-11.621c-0.287-6.406,0.145-14.203,1.293-23.384c1.146-9.183,2.867-19.126,5.164-29.842
		c2.294-10.71,4.876-20.897,7.746-30.559c2.87-9.657,5.883-18.17,9.039-25.538C458.111,265.858,461.123,260.837,463.994,258.156z"/>
	<path style="fill:#333;" d="M557.246,389.571c-4.018,0-7.416-0.862-10.187-2.582c-2.774-1.722-4.976-4.019-6.599-6.887
		c-1.629-2.87-2.775-6.17-3.444-9.898c-0.671-3.73-0.909-7.604-0.716-11.621c0.187-5.166,0.904-11.091,2.152-17.791
		c1.241-6.694,2.961-13.674,5.164-20.945c2.197-7.269,4.779-14.44,7.746-21.52c2.964-7.075,6.313-13.388,10.043-18.938
		c3.73-5.546,7.842-10.087,12.339-13.629c4.491-3.538,9.325-5.404,14.489-5.597c5.546-0.381,10.231,0.529,14.059,2.727
		c3.826,2.201,6.027,5.215,6.601,9.039c0.382,3.255,0.619,4.927,0.718,5.021c0.094,0.099,0.717-0.142,1.865-0.716
		c1.91-0.763,3.729-1.148,5.451-1.148c2.676,0,4.779,0.479,6.313,1.434c2.295,1.148,3.346,3.779,3.156,7.891
		c-0.192,4.115-0.861,9.231-2.008,15.352c-1.148,6.123-2.345,13.055-3.588,20.803c-1.246,7.746-1.864,15.736-1.864,23.958
		c0,3.063,0.188,6.601,0.574,10.616c0.382,4.019,0.812,7.846,1.29,11.478c0.477,3.637,0.955,6.699,1.436,9.183
		c0.475,2.488,0.812,3.729,1.004,3.729c0.574-0.188,2.054-2.053,4.447-5.596c2.389-3.536,4.637-7.124,6.744-10.759
		c3.631-6.12,7.266-13.15,10.902-21.09c3.631-7.936,7.747-16.785,12.337-26.542c2.104,0,3.444,0.337,4.019,1.005
		c0.574,0.673,0.43,2.295-0.43,4.878c-0.862,2.582-2.44,6.456-4.734,11.62c-2.297,5.165-5.359,12.244-9.183,21.234
		c-1.723,3.827-3.542,7.652-5.452,11.477c-1.913,3.829-4.017,7.416-6.313,10.761c-2.295,3.349-4.832,6.268-7.604,8.751
		c-2.774,2.488-5.789,4.209-9.038,5.164c-2.296,0.767-4.783,1.148-7.46,1.148c-1.723,0-3.542-0.189-5.453-0.574
		c-0.767-0.189-1.434-0.382-2.008-0.574c-4.783-1.909-8.228-5.209-10.329-9.898c-2.107-4.686-3.255-12.096-3.444-22.238
		c-0.192-4.778-0.385-7.316-0.574-7.603c-0.192-0.288-0.766,0.717-1.72,3.013c-0.96,1.915-2.345,4.639-4.16,8.177
		c-1.821,3.543-3.73,7.03-5.74,10.473c-2.009,3.444-3.827,6.507-5.45,9.183c-1.629,2.682-2.727,4.211-3.301,4.59
		c-0.385,0.388-0.91,0.767-1.578,1.148c-0.674,0.385-1.484,0.767-2.438,1.148c-0.96,0.385-1.966,0.673-3.015,0.859
		C561.214,389.477,559.542,389.571,557.246,389.571z M596.555,274.225c-5.357,10.14-9.854,20.757-13.484,31.849
		c-3.637,11.097-6.506,21.377-8.609,30.846c-2.107,9.469-3.541,17.314-4.304,23.527c-0.767,6.219-1.146,9.518-1.146,9.898
		c0.187,0.386,0.905-0.573,2.15-2.868c1.243-2.296,2.821-5.403,4.736-9.326c1.909-3.917,3.968-8.32,6.169-13.199
		c2.196-4.876,4.253-9.706,6.168-14.489c1.91-4.779,3.682-9.275,5.309-13.486c1.623-4.205,2.727-7.459,3.3-9.755
		c1.148-3.442,1.815-5.738,2.009-6.887c0.188-1.147,0.236-2.008,0.144-2.582c-0.099-0.574-0.243-1.385-0.431-2.438
		c-0.193-1.051-0.287-3.108-0.287-6.17c0-4.779-0.193-8.222-0.574-10.329C597.318,276.712,596.937,275.185,596.555,274.225z"/>
	<path style="fill:#333;" d="M762.115,262.46c3.249,4.016,5.45,10.284,6.598,18.793c1.148,8.515,0.812,18.463-1.004,29.842
		c-1.819,11.382-5.501,23.576-11.047,36.583c-5.55,13.01-13.392,25.923-23.527,38.736c-5.738,6.887-11.909,12.007-18.508,15.352
		c-6.6,3.345-12.102,5.021-16.499,5.021c-2.107,0-3.729-0.286-4.878-0.86c-1.721-0.767-3.013-2.44-3.872-5.022
		c-0.862-2.582-1.341-5.495-1.437-8.751c-0.098-3.249,0.145-6.501,0.718-9.756c0.574-3.25,1.337-5.926,2.297-8.033
		c1.335-2.87,2.963-5.403,4.876-7.604c1.911-2.197,3.537-3.394,4.878-3.586c0.382,0,0.763,0.574,1.148,1.722
		c0.382,0.96,0.382,2.438,0,4.446c-0.386,2.009-0.815,4.211-1.292,6.601c-0.479,2.394-0.815,4.832-1.004,7.316
		c-0.193,2.489,0,4.879,0.574,7.173c0.381,1.148,0.861,2.345,1.434,3.586c0.574,1.248,1.051,1.866,1.437,1.866
		c0.188,0,0.667-0.574,1.434-1.722c0.763-1.148,1.623-2.438,2.582-3.875c0.956-1.434,1.911-2.961,2.87-4.59
		c0.954-1.623,1.623-2.819,2.009-3.586c1.722-3.442,3.68-8.559,5.882-15.352c2.197-6.787,4.491-14.392,6.887-22.812
		c2.39-8.414,4.684-17.071,6.887-25.966c2.197-8.896,4.061-17.073,5.595-24.534c1.529-7.46,2.626-13.773,3.3-18.938
		c0.668-5.165,0.619-8.128-0.145-8.895c-0.192-0.189-2.057,0.767-5.594,2.868c-3.542,2.107-7.03,5.453-10.473,10.042
		c-2.682,3.444-5.264,7.175-7.749,11.191c-2.488,4.019-4.833,8.179-7.028,12.481c-2.203,4.305-4.305,8.609-6.313,12.913
		c-2.01,4.304-3.781,8.276-5.309,11.907c-5.358,12.626-9.23,22.192-11.62,28.693c-2.396,6.505-4.067,11.335-5.022,14.491
		c-0.96,3.156-1.819,5.405-2.582,6.742c-0.768,1.341-2.297,3.062-4.591,5.165c-4.592,4.403-8.994,6.697-13.199,6.886
		c-3.255,0.193-5.552-0.332-6.886-1.578c-1.341-1.241-1.915-3.586-1.723-7.03c0-1.147-0.192-3.057-0.574-5.738
		c-0.385-2.676-0.479-6.693-0.286-12.051c0.188-5.354,0.761-12.384,1.721-21.09c0.955-8.701,2.771-19.655,5.452-32.854
		c0.188-0.382,0.718-2.483,1.578-6.313c0.86-3.824,2.008-8.751,3.444-14.777c1.435-6.024,3.013-12.718,4.734-20.085
		c1.72-7.361,3.586-14.633,5.595-21.806c2.008-7.174,3.967-13.869,5.882-20.085c1.909-6.215,3.631-11.235,5.165-15.065
		c2.104-4.972,4.59-9.418,7.46-13.341c2.868-3.919,5.354-6.17,7.461-6.744c0.955-0.379,2.438-0.379,4.446,0
		c2.01,0.387,3.682,0.959,5.022,1.722c1.908,1.148,3.012,3.3,3.3,6.457c0.286,3.156,0.094,7.03-0.574,11.621
		c-0.673,4.59-1.771,9.805-3.3,15.637c-1.533,5.837-3.156,12.102-4.879,18.795c-3.061,10.903-5.837,22.049-8.32,33.427
		c-2.488,11.383-4.546,21.664-6.168,30.846c-1.629,9.182-2.826,16.597-3.589,22.238c-0.767,5.643-0.959,8.176-0.572,7.603
		c0.762-1.335,2.15-4.397,4.161-9.181c2.008-4.781,4.347-10.282,7.028-16.5c2.678-6.215,5.641-12.72,8.895-19.511
		c3.252-6.787,6.501-12.862,9.757-18.221c4.778-7.459,9.755-12.812,14.921-16.067c5.164-3.251,10.136-4.878,14.919-4.878
		C751.973,254.426,757.711,257.107,762.115,262.46z"/>
</g>
</svg>
